<?xml version="1.0" standalone="no"?>
<!DOCTYPE svg PUBLIC "-//W3C//DTD SVG 20010904//EN"
 "http://www.w3.org/TR/2001/REC-SVG-20010904/DTD/svg10.dtd">
<svg version="1.0" xmlns="http://www.w3.org/2000/svg"
 width="260.000000pt" height="260.000000pt" viewBox="0 0 260.000000 260.000000"
 preserveAspectRatio="xMidYMid meet">
<metadata>
Created by potrace 1.11, written by Peter Selinger 2001-2013
</metadata>
<g transform="translate(0.000000,260.000000) scale(0.100000,-0.100000)"
fill="#000000" stroke="none">
<path d="M73 2119 c-15 -5 -16 -84 -15 -875 0 -478 1 -873 1 -877 1 -5 191 -7
424 -5 411 3 423 4 477 26 63 26 84 42 124 94 49 65 75 161 96 348 9 79 7 791
-2 825 -5 17 -18 101 -20 130 -2 18 -46 139 -62 171 -21 41 -98 112 -141 130
-77 32 -143 37 -503 38 -199 1 -370 -2 -379 -5z m744 -183 c178 -18 235 -102
259 -376 8 -98 8 -548 -1 -675 -12 -190 -50 -280 -133 -318 -45 -21 -64 -22
-414 -25 l-368 -4 0 700 c0 457 3 701 10 704 17 6 582 0 647 -6z"/>
<path d="M1562 2112 c-57 -17 -112 -55 -140 -98 -53 -82 -81 -231 -76 -409 8
-252 56 -342 210 -394 58 -19 100 -24 344 -36 318 -16 298 -14 377 -36 51 -14
99 -57 120 -107 21 -49 27 -228 10 -307 -19 -89 -43 -125 -106 -157 l-54 -28
-294 1 c-311 1 -340 4 -404 50 -41 29 -68 91 -81 186 l-11 82 -52 0 -51 0 2
-57 c6 -209 72 -352 190 -412 49 -25 50 -25 382 -28 280 -3 342 0 388 13 112
32 179 134 199 300 12 100 11 271 -2 353 -38 235 -146 312 -465 328 -73 3
-155 7 -183 9 -27 2 -86 4 -130 5 -148 5 -222 36 -256 107 -20 42 -23 63 -24
168 0 179 26 245 111 281 33 14 82 16 334 16 281 -1 313 -3 363 -18 38 -11 86
-54 106 -92 21 -41 41 -127 41 -172 0 -20 5 -30 15 -31 8 0 32 -1 53 -1 l37
-1 -2 74 c-5 231 -104 390 -259 415 -22 4 -176 7 -343 8 -228 1 -315 -2 -349
-12z"/>
</g>
</svg>
